<?xml version="1.0" standalone="no"?>
<!DOCTYPE svg PUBLIC "-//W3C//DTD SVG 20010904//EN"
 "http://www.w3.org/TR/2001/REC-SVG-20010904/DTD/svg10.dtd">
<svg version="1.0" xmlns="http://www.w3.org/2000/svg"
 width="500.000000pt" height="500.000000pt" viewBox="0 0 500.000000 500.000000"
 preserveAspectRatio="xMidYMid meet">
<metadata>
Created by potrace 1.14, written by Peter Selinger 2001-2017
</metadata>
<g transform="translate(0.000000,500.000000) scale(0.100000,-0.100000)"
fill="#000000" stroke="none">
<path d="M2210 4172 c0 -5 9 -17 20 -27 24 -22 26 -62 5 -112 -8 -19 -15 -44
-15 -55 0 -11 -12 -50 -26 -86 -46 -116 -142 -194 -289 -236 -33 -9 -73 -21
-90 -27 -55 -18 -274 -22 -335 -6 -30 9 -59 13 -64 10 -15 -10 26 -33 57 -33
43 0 129 -45 176 -92 52 -54 126 -197 142 -278 20 -102 -18 -271 -104 -458
-26 -57 -60 -97 -97 -112 -16 -7 -27 -16 -24 -21 2 -5 28 1 57 12 78 32 178
59 214 59 82 0 159 -82 244 -260 24 -48 38 -205 25 -273 -6 -34 -33 -57 -45
-39 -3 5 -17 8 -31 7 -14 -1 -30 2 -36 7 -8 5 -14 3 -17 -7 -4 -8 -13 -12 -22
-9 -8 3 -15 1 -15 -5 0 -6 -7 -8 -15 -5 -9 4 -15 1 -15 -7 0 -9 -3 -10 -11 -2
-14 14 -48 -16 -40 -37 4 -12 2 -13 -10 -3 -11 9 -18 8 -31 -1 -10 -7 -15 -16
-11 -20 7 -7 -20 -29 -66 -56 -14 -8 -42 -27 -61 -41 -56 -43 -258 -149 -282
-149 -8 0 -22 -6 -33 -13 -11 -7 -44 -19 -73 -26 -46 -11 -55 -11 -70 2 -14
13 -59 35 -82 42 -3 0 -27 11 -54 24 -43 20 -51 21 -60 9 -6 -8 -17 -13 -25
-10 -9 3 -12 0 -8 -11 4 -11 0 -13 -13 -10 -16 4 -17 1 -11 -29 10 -43 24 -68
50 -92 18 -16 32 -18 98 -13 104 7 343 51 368 68 6 3 22 9 38 13 23 6 74 26
162 66 148 67 223 85 326 76 144 -12 189 -18 189 -24 -1 -4 -7 -18 -14 -31
-12 -22 -20 -24 -95 -26 -45 0 -87 2 -93 7 -7 4 -36 -7 -66 -24 -39 -22 -61
-29 -82 -24 -37 7 -57 -21 -40 -54 14 -27 45 -25 107 7 l53 26 98 -21 c125
-28 164 -27 237 7 64 30 85 30 85 0 0 -26 49 -25 83 1 21 17 27 18 36 6 22
-26 25 -84 7 -111 -16 -24 -21 -25 -61 -19 -42 6 -44 5 -51 -20 -4 -16 -1 -32
7 -42 13 -15 29 -15 89 1 20 5 14 -4 -29 -44 -58 -54 -63 -71 -15 -46 54 28
135 38 264 32 69 -2 139 -10 155 -17 17 -7 44 -19 62 -26 17 -8 35 -14 40 -14
5 0 33 -22 62 -49 l54 -50 -5 -68 c-3 -37 -3 -62 -1 -55 5 13 19 30 92 105 20
21 62 52 95 69 52 26 69 30 145 30 73 -1 94 -5 141 -27 30 -15 69 -37 85 -49
17 -12 42 -28 58 -36 15 -7 31 -25 34 -39 7 -25 7 -24 19 14 25 81 18 145 -27
238 -40 84 -43 87 -167 186 -70 55 -161 120 -202 144 -41 23 -93 55 -115 70
-34 23 -50 27 -115 27 -41 1 -88 7 -105 15 -16 7 -23 14 -15 14 8 1 38 13 65
27 56 29 130 54 159 54 11 0 28 -7 38 -17 16 -14 20 -15 36 -1 21 19 97 46
137 50 27 3 30 6 30 38 0 33 -3 36 -41 45 -23 6 -48 15 -55 22 -25 21 -90 30
-209 29 -90 -1 -114 -4 -112 -14 1 -8 -2 -11 -7 -8 -5 3 -23 1 -41 -5 -27 -10
-31 -15 -26 -38 3 -14 3 -20 0 -13 -8 17 -24 15 -24 -3 0 -9 -6 -12 -17 -8
-10 4 -14 2 -10 -4 16 -25 -37 -19 -96 11 -60 32 -62 34 -69 82 -10 65 -2 113
34 197 45 107 92 171 137 189 4 2 0 50 -11 108 -10 58 -23 132 -28 165 -5 33
-14 89 -19 124 -15 96 -51 243 -96 396 -15 50 -30 106 -34 125 -3 19 -22 60
-42 90 -19 30 -69 112 -109 182 -68 117 -81 133 -157 195 -46 37 -96 79 -111
91 -44 39 -104 82 -114 82 -4 0 -8 -4 -8 -8z m-323 -2094 c-3 -8 -6 -5 -6 6
-1 11 2 17 5 13 3 -3 4 -12 1 -19z"/>
<path d="M2035 1243 c6 -38 3 -46 -25 -81 -17 -21 -33 -55 -37 -75 -5 -31 -8
-35 -20 -26 -10 9 -13 34 -12 91 1 70 -1 82 -20 101 l-23 22 2 -25 c4 -45 0
-60 -19 -79 -27 -27 -52 -78 -49 -98 2 -9 -2 -18 -8 -20 -17 -6 -26 43 -19
102 5 39 3 60 -9 84 -23 43 -36 39 -36 -13 0 -27 -6 -48 -16 -57 -22 -18 -44
-64 -44 -94 0 -14 -5 -25 -10 -25 -18 0 -31 52 -24 97 9 61 -2 110 -26 116
-17 4 -19 1 -14 -20 7 -26 -8 -64 -39 -98 -21 -23 -30 -54 -25 -86 6 -49 237
-176 440 -244 210 -70 275 -79 543 -79 228 -1 246 1 360 28 218 51 402 129
570 241 55 37 102 69 104 71 2 2 6 38 8 81 4 73 3 79 -20 101 l-25 24 0 -45
c1 -38 -5 -52 -30 -82 -23 -25 -32 -46 -32 -70 0 -41 -16 -46 -32 -10 -7 16
-8 39 -1 72 10 53 -1 109 -23 117 -10 4 -14 -3 -14 -25 0 -34 -12 -61 -46
-102 -14 -16 -24 -42 -24 -59 0 -26 -2 -29 -15 -18 -12 10 -15 31 -14 89 2 51
-2 83 -12 99 -19 30 -32 28 -26 -4 3 -18 -5 -40 -29 -76 -22 -32 -34 -62 -34
-84 0 -19 -5 -34 -10 -34 -19 0 -31 53 -24 106 4 36 2 63 -7 83 -18 40 -43 42
-36 4 6 -30 -4 -53 -39 -96 -15 -18 -24 -42 -24 -63 0 -42 -14 -44 -31 -3 -10
25 -10 41 0 76 10 39 9 49 -6 76 -26 44 -40 44 -40 -1 0 -27 -9 -51 -32 -82
-18 -25 -31 -55 -31 -73 0 -26 -2 -28 -16 -16 -13 10 -15 27 -11 79 3 45 0 75
-10 98 -21 45 -44 43 -36 -3 5 -30 0 -42 -27 -76 -18 -23 -34 -55 -36 -72 -1
-18 -3 -34 -4 -37 0 -3 -7 4 -16 15 -11 15 -13 36 -9 90 6 65 4 72 -19 100
l-25 30 -1 -47 c0 -34 -6 -54 -24 -75 -35 -42 -46 -67 -39 -91 7 -28 -13 -29
-28 -1 -7 14 -9 44 -4 86 5 50 3 69 -9 88 -23 35 -35 31 -34 -12 2 -28 -6 -49
-30 -82 -19 -26 -32 -56 -32 -75 l-1 -31 -18 22 c-16 19 -18 34 -14 83 6 58
-9 120 -28 120 -5 0 -9 -17 -9 -38 0 -27 -8 -47 -30 -72 -19 -23 -29 -46 -30
-67 0 -44 -18 -51 -34 -13 -9 23 -10 41 -3 69 12 44 5 79 -23 111 l-20 23 2
-40 c1 -32 -6 -51 -30 -84 -21 -28 -32 -55 -32 -76 0 -18 -5 -33 -10 -33 -19
0 -30 49 -27 119 1 45 -2 73 -12 84 -18 22 -31 12 -31 -24 0 -33 -20 -79 -44
-98 -9 -8 -16 -29 -16 -47 0 -19 -4 -34 -8 -34 -19 0 -29 49 -25 115 5 66 4
71 -22 95 l-27 25 7 -42z"/>
<path d="M1350 1242 c0 -17 10 -38 25 -52 l25 -23 0 22 c0 27 -27 81 -40 81
-6 0 -10 -13 -10 -28z"/>
<path d="M1487 1224 c-3 -27 -13 -54 -26 -68 l-22 -24 43 -34 c55 -44 78 -58
61 -36 -13 16 -15 28 -13 115 2 89 -33 128 -43 47z"/>
<path d="M3680 1230 c0 -30 -7 -48 -31 -75 -40 -45 -29 -45 27 1 46 38 58 76
32 102 -21 21 -28 13 -28 -28z"/>
</g>
</svg>
